<svg width="384" height="208" viewBox="0 0 384 208" fill="none" xmlns="http://www.w3.org/2000/svg">
<g id="Union">
<path d="M64 192H80V176H96V160H112V144H352V160H128V176H112V192H96V208H48V160H32V144H64V192Z" fill="black"/>
<path d="M32 144H16V128H32V144Z" fill="black"/>
<path d="M368 144H352V128H368V144Z" fill="black"/>
<path d="M16 128H0V32H16V128Z" fill="black"/>
<path d="M384 128H368V32H384V128Z" fill="black"/>
<path fill-rule="evenodd" clip-rule="evenodd" d="M62.7197 55.2402C62.9757 56.2642 63.1035 57.5442 63.1035 59.0801C63.1035 60.552 62.9757 61.8319 62.7197 62.9199H66.5596C66.8156 63.9439 66.9443 65.2239 66.9443 66.7598C66.9443 68.2316 66.8155 69.5117 66.5596 70.5996C66.8156 71.6236 66.9443 72.9044 66.9443 74.4404C66.9443 75.9122 66.8155 77.1924 66.5596 78.2803H62.7197C62.9757 79.3042 63.1035 80.5842 63.1035 82.1201C63.1035 83.5921 62.9757 84.872 62.7197 85.96H43.5195C43.7755 86.9839 43.9043 88.2639 43.9043 89.7998C43.9043 91.2717 43.7755 92.5517 43.5195 93.6396C43.7755 94.6636 43.9043 95.9445 43.9043 97.4805C43.9043 98.9523 43.7755 100.232 43.5195 101.32C43.7755 102.344 43.9043 103.624 43.9043 105.16C43.9043 106.632 43.7755 107.912 43.5195 109H35.8398C35.5839 107.912 35.4561 106.632 35.4561 105.16C35.4561 103.624 35.5839 102.344 35.8398 101.32C35.5839 100.232 35.4561 98.9523 35.4561 97.4805C35.4561 95.9445 35.5838 94.6636 35.8398 93.6396C35.5839 92.5517 35.4561 91.2716 35.4561 89.7998C35.4561 88.2639 35.5839 86.9839 35.8398 85.96C35.5839 84.872 35.4561 83.592 35.4561 82.1201C35.4561 80.5843 35.5839 79.3042 35.8398 78.2803C35.5839 77.1924 35.4561 75.9122 35.4561 74.4404C35.4561 72.9044 35.5838 71.6236 35.8398 70.5996C35.5839 69.5117 35.4561 68.2316 35.4561 66.7598C35.4561 65.2239 35.5839 63.9439 35.8398 62.9199C35.5839 61.832 35.4561 60.552 35.4561 59.0801C35.4561 57.5442 35.5839 56.2642 35.8398 55.2402H62.7197ZM43.5195 62.9199C43.7755 63.9439 43.9043 65.2239 43.9043 66.7598C43.9043 68.2316 43.7755 69.5117 43.5195 70.5996C43.7755 71.6236 43.9043 72.9044 43.9043 74.4404C43.9043 75.9122 43.7755 77.1924 43.5195 78.2803H58.8799C58.6239 77.1924 58.4961 75.9122 58.4961 74.4404C58.4961 72.9044 58.6239 71.6236 58.8799 70.5996C58.6239 69.5117 58.4961 68.2316 58.4961 66.7598C58.4961 65.2239 58.6239 63.9439 58.8799 62.9199H43.5195Z" fill="black"/>
<path d="M91.5576 70.5996C91.8136 71.6236 91.9414 72.9044 91.9414 74.4404C91.9414 75.9122 91.8136 77.1924 91.5576 78.2803C91.8136 79.3042 91.9414 80.5843 91.9414 82.1201C91.9414 83.592 91.8136 84.872 91.5576 85.96C91.8136 86.9839 91.9414 88.2639 91.9414 89.7998C91.9414 91.2716 91.8136 92.5517 91.5576 93.6396C91.8136 94.6636 91.9414 95.9445 91.9414 97.4805C91.9414 98.9523 91.8136 100.232 91.5576 101.32H99.2373C99.4933 102.344 99.6211 103.624 99.6211 105.16C99.6211 106.632 99.4933 107.912 99.2373 109H76.1973C75.9413 107.912 75.8135 106.632 75.8135 105.16C75.8135 103.624 75.9413 102.344 76.1973 101.32H83.8779C83.622 100.232 83.4932 98.9523 83.4932 97.4805C83.4932 95.9445 83.6219 94.6636 83.8779 93.6396C83.622 92.5517 83.4932 91.2717 83.4932 89.7998C83.4932 88.2639 83.6219 86.9839 83.8779 85.96C83.6219 84.872 83.4932 83.5921 83.4932 82.1201C83.4932 80.5842 83.622 79.3042 83.8779 78.2803H78.1172C77.8612 77.1924 77.7334 75.9122 77.7334 74.4404C77.7334 72.9044 77.8612 71.6236 78.1172 70.5996H91.5576Z" fill="black"/>
<path d="M118.475 70.5996C118.731 71.6236 118.859 72.9044 118.859 74.4404C118.859 75.9122 118.731 77.1924 118.475 78.2803H122.315C122.571 79.3042 122.699 80.5843 122.699 82.1201C122.699 83.592 122.571 84.872 122.315 85.96H127.115C126.859 84.872 126.731 83.5921 126.731 82.1201C126.731 80.5842 126.859 79.3042 127.115 78.2803H129.995C129.739 77.1924 129.611 75.9122 129.611 74.4404C129.611 72.9044 129.739 71.6236 129.995 70.5996H137.675C137.931 71.6236 138.059 72.9044 138.059 74.4404C138.059 75.9122 137.931 77.1924 137.675 78.2803H134.795C135.051 79.3042 135.179 80.5842 135.179 82.1201C135.179 83.5921 135.051 84.872 134.795 85.96H129.995C130.251 86.9839 130.379 88.2639 130.379 89.7998C130.379 91.2716 130.251 92.5517 129.995 93.6396H134.795C135.051 94.6636 135.179 95.9445 135.179 97.4805C135.179 98.9523 135.051 100.232 134.795 101.32H137.675C137.931 102.344 138.059 103.624 138.059 105.16C138.059 106.632 137.931 107.912 137.675 109H129.995C129.739 107.912 129.611 106.632 129.611 105.16C129.611 103.624 129.739 102.344 129.995 101.32H127.115C126.859 100.232 126.731 98.9523 126.731 97.4805C126.731 95.9445 126.859 94.6636 127.115 93.6396H122.315C122.571 94.6636 122.699 95.9445 122.699 97.4805C122.699 98.9523 122.571 100.232 122.315 101.32H118.475C118.731 102.344 118.859 103.624 118.859 105.16C118.859 106.632 118.731 107.912 118.475 109H110.795C110.539 107.912 110.411 106.632 110.411 105.16C110.411 103.624 110.539 102.344 110.795 101.32H114.635C114.379 100.232 114.251 98.9523 114.251 97.4805C114.251 95.9445 114.379 94.6636 114.635 93.6396H118.475C118.219 92.5517 118.091 91.2716 118.091 89.7998C118.091 88.2639 118.219 86.9839 118.475 85.96H114.635C114.379 84.872 114.251 83.592 114.251 82.1201C114.251 80.5843 114.379 79.3042 114.635 78.2803H110.795C110.539 77.1924 110.411 75.9122 110.411 74.4404C110.411 72.9044 110.539 71.6236 110.795 70.5996H118.475Z" fill="black"/>
<path fill-rule="evenodd" clip-rule="evenodd" d="M172.272 70.5996C172.528 71.6236 172.656 72.9044 172.656 74.4404C172.656 75.9122 172.528 77.1924 172.272 78.2803H176.112C176.368 79.3042 176.496 80.5842 176.496 82.1201C176.496 83.5921 176.368 84.872 176.112 85.96C176.368 86.9839 176.496 88.2639 176.496 89.7998C176.496 91.2717 176.368 92.5517 176.112 93.6396H155.952C156.208 94.6636 156.337 95.9445 156.337 97.4805C156.337 98.9523 156.208 100.232 155.952 101.32H172.272C172.528 102.344 172.656 103.624 172.656 105.16C172.656 106.632 172.528 107.912 172.272 109H153.072C152.816 107.912 152.688 106.632 152.688 105.16C152.688 103.624 152.816 102.344 153.072 101.32H148.272C148.016 100.232 147.889 98.9523 147.889 97.4805C147.889 95.9445 148.016 94.6636 148.272 93.6396H145.393C145.137 92.5517 145.009 91.2717 145.009 89.7998C145.009 88.2639 145.137 86.9839 145.393 85.96H148.272C148.016 84.872 147.889 83.592 147.889 82.1201C147.889 80.5842 148.017 79.3042 148.272 78.2803H153.072C152.816 77.1924 152.689 75.9122 152.688 74.4404C152.688 72.9044 152.816 71.6236 153.072 70.5996H172.272ZM155.952 78.2803C156.208 79.3042 156.337 80.5842 156.337 82.1201C156.337 83.5921 156.208 84.872 155.952 85.96H168.433C168.177 84.872 168.049 83.5921 168.049 82.1201C168.049 80.5842 168.177 79.3042 168.433 78.2803H155.952Z" fill="black"/>
<path d="M201.11 55.2402C201.366 56.2642 201.494 57.5442 201.494 59.0801C201.494 60.552 201.366 61.832 201.11 62.9199C201.366 63.9439 201.494 65.2239 201.494 66.7598C201.494 68.2316 201.366 69.5117 201.11 70.5996C201.366 71.6236 201.494 72.9044 201.494 74.4404C201.494 75.9122 201.366 77.1924 201.11 78.2803C201.366 79.3042 201.494 80.5843 201.494 82.1201C201.494 83.592 201.366 84.872 201.11 85.96C201.366 86.9839 201.494 88.2639 201.494 89.7998C201.494 91.2716 201.366 92.5517 201.11 93.6396C201.366 94.6636 201.494 95.9445 201.494 97.4805C201.494 98.9523 201.366 100.232 201.11 101.32H208.79C209.046 102.344 209.174 103.624 209.174 105.16C209.174 106.632 209.046 107.912 208.79 109H185.75C185.494 107.912 185.366 106.632 185.366 105.16C185.366 103.624 185.494 102.344 185.75 101.32H193.43C193.174 100.232 193.046 98.9523 193.046 97.4805C193.046 95.9445 193.174 94.6636 193.43 93.6396C193.174 92.5517 193.046 91.2716 193.046 89.7998C193.046 88.2639 193.174 86.9839 193.43 85.96C193.174 84.872 193.046 83.592 193.046 82.1201C193.046 80.5843 193.174 79.3042 193.43 78.2803C193.174 77.1924 193.046 75.9122 193.046 74.4404C193.046 72.9044 193.174 71.6236 193.43 70.5996C193.174 69.5117 193.046 68.2316 193.046 66.7598C193.046 65.2239 193.174 63.9439 193.43 62.9199H187.67C187.414 61.832 187.286 60.552 187.286 59.0801C187.286 57.5442 187.414 56.2642 187.67 55.2402H201.11Z" fill="black"/>
<path d="M32 32H16V16H32V32Z" fill="black"/>
<path d="M368 32H352V16H368V32Z" fill="black"/>
<path d="M352 16H32V0H352V16Z" fill="black"/>
<path d="M245.308 55.2402C245.564 56.2642 245.691 57.5442 245.691 59.0801C245.691 60.552 245.564 61.832 245.308 62.9199H249.147C249.403 63.9439 249.531 65.2239 249.531 66.7598C249.531 68.2316 249.403 69.5117 249.147 70.5996H241.468C241.212 69.5117 241.084 68.2316 241.084 66.7598C241.084 65.2239 241.212 63.9439 241.468 62.9199H229.947C230.203 63.9439 230.331 65.2239 230.331 66.7598C230.331 68.2316 230.203 69.5117 229.947 70.5996H226.107C226.363 71.6236 226.491 72.9044 226.491 74.4404C226.491 75.9122 226.363 77.1924 226.107 78.2803C226.363 79.3042 226.491 80.5842 226.491 82.1201C226.491 83.5921 226.363 84.872 226.107 85.96C226.363 86.9839 226.491 88.2639 226.491 89.7998C226.491 91.2717 226.363 92.5517 226.107 93.6396H229.947C230.203 94.6636 230.331 95.9445 230.331 97.4805C230.331 98.9523 230.203 100.232 229.947 101.32H241.468C241.212 100.232 241.084 98.9523 241.084 97.4805C241.084 95.9445 241.212 94.6636 241.468 93.6396H249.147C249.403 94.6636 249.531 95.9445 249.531 97.4805C249.531 98.9523 249.403 100.232 249.147 101.32H245.308C245.564 102.344 245.691 103.624 245.691 105.16C245.691 106.632 245.564 107.912 245.308 109H226.107C225.851 107.912 225.724 106.632 225.724 105.16C225.724 103.624 225.851 102.344 226.107 101.32H222.268C222.012 100.232 221.884 98.9523 221.884 97.4805C221.884 95.9445 222.012 94.6636 222.268 93.6396H218.428C218.172 92.5517 218.044 91.2717 218.044 89.7998C218.044 88.2639 218.172 86.9839 218.428 85.96C218.172 84.872 218.044 83.5921 218.044 82.1201C218.044 80.5842 218.172 79.3042 218.428 78.2803C218.172 77.1924 218.044 75.9122 218.044 74.4404C218.044 72.9044 218.172 71.6236 218.428 70.5996H222.268C222.012 69.5117 221.884 68.2316 221.884 66.7598C221.884 65.2239 222.012 63.9439 222.268 62.9199H226.107C225.851 61.832 225.724 60.552 225.724 59.0801C225.724 57.5442 225.851 56.2642 226.107 55.2402H245.308Z" fill="#022F72"/>
<path d="M263.009 59.0801C263.009 57.5442 262.881 56.2642 262.625 55.2402H254.945C254.689 56.2642 254.561 57.5442 254.561 59.0801C254.561 60.552 254.689 61.8319 254.945 62.9199C254.689 63.9439 254.561 65.2239 254.561 66.7598C254.561 68.2316 254.689 69.5117 254.945 70.5996C254.689 71.6236 254.561 72.9044 254.561 74.4404C254.561 75.9122 254.689 77.1924 254.945 78.2803C254.689 79.3042 254.561 80.5842 254.561 82.1201C254.561 83.5921 254.689 84.872 254.945 85.96C254.689 86.9839 254.561 88.2639 254.561 89.7998C254.561 91.2717 254.689 92.5517 254.945 93.6396C254.689 94.6636 254.561 95.9445 254.561 97.4805C254.561 98.9523 254.689 100.232 254.945 101.32C254.689 102.344 254.561 103.624 254.561 105.16C254.561 106.632 254.689 107.912 254.945 109H262.625C262.881 107.912 263.009 106.632 263.009 105.16C263.009 103.624 262.881 102.344 262.625 101.32C262.881 100.232 263.009 98.9523 263.009 97.4805C263.009 95.9445 262.881 94.6636 262.625 93.6396C262.881 92.5517 263.009 91.2717 263.009 89.7998C263.009 88.2639 262.881 86.9839 262.625 85.96H265.505C265.761 84.872 265.889 83.5921 265.889 82.1201C265.889 80.776 265.791 79.6278 265.595 78.6758L265.505 78.2803H262.625C262.881 77.1924 263.009 75.9122 263.009 74.4404C263.009 72.9044 262.881 71.6236 262.625 70.5996C262.881 69.5117 263.009 68.2316 263.009 66.7598C263.009 65.2239 262.881 63.9439 262.625 62.9199C262.881 61.832 263.009 60.552 263.009 59.0801Z" fill="#022F72"/>
<path d="M265.121 74.4404C265.121 75.9122 265.249 77.1924 265.505 78.2803H277.985C277.729 79.3042 277.601 80.5842 277.601 82.1201C277.601 83.5921 277.729 84.872 277.985 85.96C277.729 86.9839 277.601 88.2639 277.601 89.7998C277.601 91.2717 277.729 92.5517 277.985 93.6396C277.729 94.6636 277.601 95.9445 277.601 97.4805C277.601 98.9523 277.729 100.232 277.985 101.32C277.729 102.344 277.601 103.624 277.601 105.16C277.601 106.632 277.729 107.912 277.985 109H285.665C285.921 107.912 286.049 106.632 286.049 105.16C286.049 103.624 285.921 102.344 285.665 101.32C285.921 100.232 286.049 98.9523 286.049 97.4805C286.049 95.9445 285.921 94.6636 285.665 93.6396C285.921 92.5517 286.049 91.2717 286.049 89.7998C286.049 88.2639 285.921 86.9839 285.665 85.96C285.921 84.872 286.049 83.592 286.049 82.1201C286.049 80.5843 285.921 79.3042 285.665 78.2803H280.865C281.121 77.1924 281.249 75.9122 281.249 74.4404C281.249 72.9044 281.121 71.6236 280.865 70.5996H265.505C265.249 71.6236 265.121 72.9044 265.121 74.4404Z" fill="#022F72"/>
<path d="M314.887 74.4404C314.887 72.9044 314.759 71.6236 314.503 70.5996H297.223C296.967 71.6236 296.839 72.9044 296.839 74.4404C296.839 75.9122 296.967 77.1924 297.223 78.2803H310.662C310.406 79.3042 310.278 80.5843 310.278 82.1201C310.278 83.592 310.406 84.872 310.662 85.96H295.303C295.047 86.9839 294.919 88.2639 294.919 89.7998C294.919 91.2717 295.047 92.5517 295.303 93.6396H291.463C291.207 94.6636 291.078 95.9445 291.078 97.4805C291.078 98.9523 291.207 100.232 291.463 101.32H295.303C295.047 102.344 294.919 103.624 294.919 105.16C294.919 106.632 295.047 107.912 295.303 109H310.662C310.918 107.912 311.047 106.632 311.047 105.16C311.047 103.816 310.949 102.668 310.753 101.716L310.662 101.32H299.143C299.399 100.232 299.526 98.9523 299.526 97.4805C299.526 95.9445 299.399 94.6636 299.143 93.6396H310.662C310.406 94.6636 310.278 95.9445 310.278 97.4805C310.278 98.9523 310.406 100.232 310.662 101.32H314.503C314.247 102.344 314.118 103.624 314.118 105.16C314.118 106.632 314.247 107.912 314.503 109H322.183C322.439 107.912 322.566 106.632 322.566 105.16C322.566 103.624 322.439 102.344 322.183 101.32H318.343C318.599 100.232 318.727 98.9523 318.727 97.4805C318.727 95.9445 318.599 94.6636 318.343 93.6396C318.599 92.5517 318.727 91.2716 318.727 89.7998C318.727 88.2639 318.599 86.9839 318.343 85.96C318.599 84.872 318.727 83.592 318.727 82.1201C318.727 80.5843 318.599 79.3042 318.343 78.2803H314.503C314.759 77.1924 314.887 75.9122 314.887 74.4404Z" fill="#022F72"/>
<path d="M343.34 55.2402C343.596 56.2642 343.724 57.5442 343.724 59.0801C343.724 60.552 343.596 61.832 343.34 62.9199C343.596 63.9439 343.724 65.2239 343.724 66.7598C343.724 68.2316 343.596 69.5117 343.34 70.5996H354.86C355.116 71.6236 355.244 72.9044 355.244 74.4404C355.244 75.9122 355.116 77.1924 354.86 78.2803H343.34C343.596 79.3042 343.724 80.5842 343.724 82.1201C343.724 83.5921 343.596 84.872 343.34 85.96C343.596 86.9839 343.724 88.2639 343.724 89.7998C343.724 91.2717 343.596 92.5517 343.34 93.6396C343.596 94.6636 343.724 95.9445 343.724 97.4805C343.724 98.9523 343.596 100.232 343.34 101.32H354.86C355.116 102.344 355.244 103.624 355.244 105.16C355.244 106.632 355.116 107.912 354.86 109H339.5C339.244 107.912 339.116 106.632 339.116 105.16C339.116 103.624 339.244 102.344 339.5 101.32H335.66C335.404 100.232 335.276 98.9523 335.276 97.4805C335.276 95.9445 335.404 94.6636 335.66 93.6396C335.404 92.5517 335.276 91.2717 335.276 89.7998C335.276 88.2639 335.404 86.9839 335.66 85.96C335.404 84.872 335.276 83.5921 335.276 82.1201C335.276 80.5842 335.404 79.3042 335.66 78.2803H327.98C327.724 77.1924 327.596 75.9122 327.596 74.4404C327.596 72.9044 327.724 71.6236 327.98 70.5996H335.66C335.404 69.5117 335.276 68.2316 335.276 66.7598C335.276 65.2239 335.404 63.9439 335.66 62.9199C335.404 61.832 335.276 60.552 335.276 59.0801C335.276 57.5442 335.404 56.2642 335.66 55.2402H343.34Z" fill="#022F72"/>
<path d="M91.5576 55.2402C91.8136 56.2642 91.9414 57.5442 91.9414 59.0801C91.9414 60.552 91.8136 61.832 91.5576 62.9199H83.8779C83.6219 61.8319 83.4932 60.552 83.4932 59.0801C83.4932 57.5441 83.6219 56.2642 83.8779 55.2402H91.5576Z" fill="#022F72"/>
</g>
</svg>
